# xmcd CD database file
#
# Track frame offsets:
#	150
#	9920
#	27415
#	55120
#	78067
#	109127
#	125742
#	150632
#	171777
#	205867
#	227525
#	258510
#	284502
#
# Disc length: 4109 seconds
#
# Revision: 1
# Processed by: cddbd v1.5PL3 Copyright (c) Steve Scherf et al.
# Submitted via: CDex 1.51
#
DISCID=a4100b0d
DTITLE=Otis Grand, Debbie Davies, Anson Funderburgh - Grand Union
DYEAR=1998
DGENRE=Blues
TTITLE0=Guitars on Fire
TTITLE1=There Was a Time
TTITLE2=Holding You Up For Love
TTITLE3=The Things I'd Do For You
TTITLE4=Bone Tones
TTITLE5=I Got Eyes
TTITLE6=Don't Talk About Me
TTITLE7=Westside Bossman
TTITLE8=TC Blues
TTITLE9=Rockin' Daddy
TTITLE10=Country Girl
TTITLE11=It's a Little Too Late
TTITLE12=The Big Prayer
EXTD=YEAR: 1998
EXTT0=
EXTT1=
EXTT2=
EXTT3=
EXTT4=
EXTT5=
EXTT6=
EXTT7=
EXTT8=
EXTT9=
EXTT10=
EXTT11=
EXTT12=
PLAYORDER=
